<svg xmlns="http://www.w3.org/2000/svg" xmlns:xlink="http://www.w3.org/1999/xlink" width="1090" zoomAndPan="magnify" viewBox="0 0 817.5 817.499979" height="1090" preserveAspectRatio="xMidYMid meet" version="1.0"><defs><filter x="0%" y="0%" width="100%" height="100%" id="778c3758d0"><feColorMatrix values="0 0 0 0 1 0 0 0 0 1 0 0 0 0 1 0 0 0 1 0" color-interpolation-filters="sRGB"/></filter><mask id="30278d6be2"><g filter="url(#778c3758d0)"><rect x="-81.75" width="981" fill="#000000" y="-81.749998" height="980.999975" fill-opacity="0.8588"/></g></mask><clipPath id="ed1c734c15"><path d="M 0.847656 0.847656 L 744.847656 0.847656 L 744.847656 744.847656 L 0.847656 744.847656 Z M 0.847656 0.847656 " clip-rule="nonzero"/></clipPath><clipPath id="c7ca87237d"><rect x="0" width="748" y="0" height="748"/></clipPath><mask id="c093697270"><g filter="url(#778c3758d0)"><rect x="-81.75" width="981" fill="#000000" y="-81.749998" height="980.999975" fill-opacity="0.8588"/></g></mask><clipPath id="7d37e9f24a"><path d="M 0.378906 0.378906 L 478.878906 0.378906 L 478.878906 478.878906 L 0.378906 478.878906 Z M 0.378906 0.378906 " clip-rule="nonzero"/></clipPath><clipPath id="a971661c70"><rect x="0" width="481" y="0" height="481"/></clipPath></defs><g mask="url(#30278d6be2)"><g transform="matrix(1, 0, 0, 1, 36, 36)"><g clip-path="url(#c7ca87237d)"><g clip-path="url(#ed1c734c15)"><path fill="#313031" d="M 372.847656 744.847656 C 167.332031 744.847656 0.847656 577.21875 0.847656 372.847656 C 0.847656 168.476562 167.332031 0.847656 372.847656 0.847656 C 578.367188 0.847656 744.847656 167.332031 744.847656 372.847656 C 744.847656 578.367188 577.21875 744.847656 372.847656 744.847656 Z M 372.847656 23.8125 C 179.960938 23.8125 23.8125 179.960938 23.8125 372.847656 C 23.8125 565.738281 179.960938 721.886719 372.847656 721.886719 C 565.738281 721.886719 721.886719 565.738281 721.886719 372.847656 C 721.886719 179.960938 564.589844 23.8125 372.847656 23.8125 Z M 372.847656 23.8125 " fill-opacity="1" fill-rule="nonzero"/></g></g></g></g><g mask="url(#c093697270)"><g transform="matrix(1, 0, 0, 1, 169, 169)"><g clip-path="url(#a971661c70)"><g clip-path="url(#7d37e9f24a)"><path fill="#464546" d="M 239.628906 478.878906 C 107.449219 478.878906 0.378906 371.066406 0.378906 239.628906 C 0.378906 108.1875 107.449219 0.378906 239.628906 0.378906 C 371.804688 0.378906 478.878906 107.449219 478.878906 239.628906 C 478.878906 371.804688 371.066406 478.878906 239.628906 478.878906 Z M 239.628906 15.144531 C 115.574219 15.144531 15.144531 115.574219 15.144531 239.628906 C 15.144531 363.683594 115.574219 464.109375 239.628906 464.109375 C 363.683594 464.109375 464.109375 363.683594 464.109375 239.628906 C 464.109375 115.574219 362.945312 15.144531 239.628906 15.144531 Z M 239.628906 15.144531 " fill-opacity="1" fill-rule="nonzero"/></g></g></g></g><path stroke-linecap="butt" transform="matrix(0.74887, 0.00000000000000053, -0.00000000000000053, 0.75, 288.187977, 401.99996)" fill="none" stroke-linejoin="miter" d="M -0.000637392 9.000055 L 312.496284 9.000055 " stroke="#ffffff" stroke-width="18" stroke-opacity="1" stroke-miterlimit="4"/><path stroke-linecap="round" transform="matrix(13.479658, 0.000000000000009533, -0.000000000000009548, 13.499998, 528.948651, 408.749956)" fill="none" stroke-linejoin="round" d="M -2.499963 -1.499997 L -0.500133 0.00000322381 L -2.499963 1.500003 " stroke="#ffffff" stroke-width="1" stroke-opacity="1" stroke-miterlimit="4"/></svg>