<svg xmlns="http://www.w3.org/2000/svg" xmlns:xlink="http://www.w3.org/1999/xlink" width="1090" zoomAndPan="magnify" viewBox="0 0 817.5 817.499979" height="1090" preserveAspectRatio="xMidYMid meet" version="1.0"><defs><clipPath id="bad13cbba1"><path d="M 0 0 L 817 0 L 817 817 L 0 817 Z M 0 0 " clip-rule="nonzero"/></clipPath><clipPath id="9a1ef5991d"><path d="M 154 36.039062 L 659 36.039062 L 659 781.539062 L 154 781.539062 Z M 154 36.039062 " clip-rule="nonzero"/></clipPath></defs><g clip-path="url(#bad13cbba1)"><path fill="#ffffff" d="M 0 0 L 817.5 0 L 817.5 825 L 0 825 Z M 0 0 " fill-opacity="1" fill-rule="nonzero"/><path fill="#ffffff" d="M 0 0 L 817.5 0 L 817.5 817.5 L 0 817.5 Z M 0 0 " fill-opacity="1" fill-rule="nonzero"/><path fill="#ffffff" d="M 0 0 L 817.5 0 L 817.5 817.5 L 0 817.5 Z M 0 0 " fill-opacity="1" fill-rule="nonzero"/></g><g clip-path="url(#9a1ef5991d)"><path fill="#1e95eb" d="M 624.785156 401.652344 L 592.515625 345.757812 C 595.464844 362.820312 597.304688 379.785156 597.996094 396.597656 C 600.664062 461.472656 586.550781 523.039062 556.066406 579.5625 C 519.550781 647.21875 460.164062 705.464844 384.332031 747.976562 C 384.175781 748.0625 384.019531 748.152344 383.867188 748.238281 C 368.550781 756.785156 373.695312 780.097656 391.210938 781.101562 C 393.320312 781.230469 395.4375 781.320312 397.554688 781.390625 C 398.929688 781.4375 400.289062 781.472656 401.664062 781.488281 C 404.195312 781.523438 406.691406 781.523438 409.234375 781.488281 C 410.59375 781.472656 411.964844 781.4375 413.328125 781.390625 C 497.925781 778.644531 579.207031 733.558594 624.636719 654.863281 L 628.863281 647.546875 C 668.601562 572.96875 670.113281 480.230469 624.785156 401.652344 Z M 519.664062 262.195312 L 485.203125 187.890625 C 489.074219 218.941406 486.472656 249.761719 477.464844 280.828125 C 462.5 332.429688 432.796875 376.578125 404.058594 419.277344 C 385.386719 447.019531 367.96875 472.910156 356.273438 498.328125 C 315.738281 586.421875 433.675781 659.039062 494.496094 583.519531 C 500.066406 576.605469 505.296875 569.460938 510.164062 562.101562 C 565.988281 477.671875 569.242188 374.070312 519.664062 262.195312 Z M 277.796875 746.933594 C 256.605469 732.953125 209.09375 694.417969 186.265625 654.863281 L 181.835938 647.183594 C 152.402344 591.75 147.359375 507.886719 162.921875 449.976562 C 168.269531 430.066406 177.011719 413.984375 186.128906 401.652344 C 405.449219 105.015625 397.199219 36.058594 397.199219 36.058594 C 479.25 176.660156 419.421875 285.464844 361.550781 390.738281 C 329.890625 448.308594 299.976562 502.695312 296.902344 558.417969 C 295.207031 589.238281 301.792969 617.5625 317.035156 644.96875 C 320.066406 650.414062 323.011719 656.109375 327.121094 661.132812 C 379.117188 724.746094 293.28125 757.15625 277.796875 746.933594 " fill-opacity="1" fill-rule="nonzero"/></g></svg>